<?xml version="1.0" standalone="no"?>
<!DOCTYPE svg PUBLIC "-//W3C//DTD SVG 20010904//EN"
 "http://www.w3.org/TR/2001/REC-SVG-20010904/DTD/svg10.dtd">
<svg version="1.0" xmlns="http://www.w3.org/2000/svg"
 width="2048.000000pt" height="2048.000000pt" viewBox="0 0 2048.000000 2048.000000"
 preserveAspectRatio="xMidYMid meet">
<metadata>
Created by potrace 1.14, written by Peter Selinger 2001-2017
</metadata>
<g transform="translate(0.000000,2048.000000) scale(0.100000,-0.100000)"
fill="#000000" stroke="none">
<path d="M14375 14703 c-274 -9 -705 -55 -1005 -107 -197 -34 -641 -141 -729
-175 -14 -6 -54 -17 -89 -26 -84 -21 -272 -84 -402 -135 -58 -23 -127 -50
-155 -60 -137 -50 -573 -261 -695 -337 -36 -22 -92 -55 -125 -73 -61 -33 -386
-248 -485 -320 -30 -22 -72 -51 -92 -65 -94 -63 -359 -295 -511 -447 l-167
-169 -43 5 c-57 8 -313 33 -472 46 -71 6 -170 15 -220 20 -49 5 -207 16 -350
25 -143 8 -316 19 -385 25 -539 44 -1324 64 -2225 57 -835 -7 -901 -9 -1675
-72 -661 -53 -1336 -179 -1665 -312 -194 -77 -284 -131 -370 -217 -76 -76
-105 -125 -105 -177 0 -16 -94 -284 -170 -484 -27 -71 -77 -206 -110 -300 -34
-93 -72 -199 -85 -235 -25 -66 -104 -285 -233 -640 -39 -107 -85 -233 -103
-280 -44 -119 -96 -261 -129 -355 -15 -44 -47 -129 -70 -190 -40 -105 -72
-195 -125 -350 -13 -38 -42 -117 -65 -175 -83 -210 -84 -214 -70 -294 16 -90
47 -156 107 -228 156 -186 570 -407 973 -519 574 -160 1289 -204 1990 -123
163 19 536 79 605 98 28 8 86 22 130 31 151 32 421 114 540 163 28 11 97 39
155 62 113 45 483 232 590 298 36 22 101 62 145 88 87 52 201 130 383 266 217
161 292 223 455 377 l78 75 187 -13 c103 -6 286 -21 407 -32 121 -11 342 -31
490 -44 149 -14 311 -30 360 -35 50 -6 171 -20 270 -31 164 -18 713 -94 1110
-153 88 -14 225 -30 304 -36 80 -6 209 -20 287 -30 185 -25 885 -96 1084 -110
85 -6 225 -17 310 -25 85 -8 306 -24 490 -35 184 -11 418 -26 520 -34 102 -9
282 -20 400 -26 118 -5 256 -12 305 -15 748 -44 2005 -56 2585 -25 278 15 673
47 795 65 55 8 152 22 215 30 267 36 518 121 569 194 11 16 34 69 51 119 46
137 259 730 364 1012 30 80 75 204 101 275 25 72 53 148 62 170 8 22 37 101
63 175 27 74 69 191 95 260 25 69 72 199 105 290 32 91 77 215 100 275 23 61
67 184 99 275 32 91 86 239 121 330 57 151 61 168 51 205 -5 22 -12 63 -15 90
-6 63 -24 117 -92 275 -66 153 -106 220 -198 330 -112 135 -313 324 -442 416
-23 16 -84 59 -135 95 -349 246 -894 504 -1379 653 -414 127 -688 198 -890
231 -52 9 -126 22 -165 30 -307 61 -1039 96 -1610 78z m-7285 -1863 c245 -5
531 -14 635 -20 105 -5 343 -17 530 -25 187 -8 387 -20 445 -25 58 -5 164 -14
235 -20 396 -31 541 -44 740 -66 121 -14 270 -29 330 -35 61 -5 142 -14 180
-19 39 -6 169 -21 290 -35 121 -13 254 -29 295 -35 41 -6 140 -20 220 -31 80
-11 190 -28 245 -38 162 -31 226 -40 305 -46 41 -4 129 -13 195 -21 123 -15
384 -41 745 -74 113 -10 273 -26 355 -35 273 -29 337 -35 665 -60 501 -39 573
-44 900 -60 168 -8 370 -20 450 -25 80 -5 300 -14 490 -20 190 -6 361 -12 380
-15 19 -2 339 -7 710 -11 957 -10 1623 17 2175 87 179 22 389 74 509 124 16 7
18 5 14 -11 -5 -17 -128 -355 -200 -549 -16 -44 -42 -116 -58 -160 -25 -72
-74 -206 -160 -440 -68 -187 -161 -441 -213 -585 -31 -85 -75 -204 -98 -265
-22 -60 -49 -135 -59 -165 -22 -65 -74 -208 -125 -340 -20 -52 -54 -149 -77
-215 -58 -173 -147 -397 -165 -417 -31 -34 -180 -86 -335 -117 -506 -99 -1454
-144 -2595 -122 -741 14 -1794 63 -2503 116 -532 39 -614 46 -735 59 -71 8
-186 20 -255 26 -69 6 -231 22 -360 36 -129 14 -323 34 -430 44 -273 27 -511
56 -675 85 -77 13 -178 29 -225 35 -47 6 -125 17 -175 25 -135 21 -573 73
-1060 125 -410 44 -1124 101 -1490 119 -115 6 -361 19 -545 28 -266 14 -524
17 -1255 17 -838 1 -954 -1 -1295 -22 -354 -21 -811 -57 -855 -67 -11 -2 -103
-13 -205 -25 -274 -31 -746 -114 -930 -164 -192 -52 -384 -121 -505 -181 -49
-24 -91 -43 -92 -41 -4 3 90 271 157 451 23 61 65 178 95 260 29 83 101 281
160 440 58 160 131 360 162 445 30 85 77 215 104 288 27 72 72 194 98 270 27
75 70 193 96 262 26 69 69 190 96 270 27 80 58 163 68 185 10 22 31 78 47 124
41 119 83 163 219 230 125 62 283 123 410 158 212 59 695 148 985 182 318 37
353 41 555 55 787 58 1522 75 2385 56z m6765 -79 c283 -43 375 -61 606 -120
239 -61 363 -96 454 -131 28 -10 122 -46 210 -79 176 -65 272 -107 325 -140
l35 -22 -130 6 c-71 3 -299 12 -505 20 -206 8 -433 19 -505 25 -71 6 -195 15
-275 21 -472 33 -1203 94 -1495 124 -82 9 -249 24 -370 35 -173 16 -421 43
-455 50 -33 7 334 104 585 154 73 15 521 73 615 80 30 2 215 2 410 1 302 -3
376 -6 495 -24z"/>
<path d="M7888 12343 c-48 -33 -177 -133 -183 -144 -4 -5 -61 -57 -128 -114
-67 -57 -142 -122 -167 -144 -25 -22 -73 -64 -106 -93 -180 -154 -493 -435
-595 -532 -63 -61 -171 -160 -240 -220 -68 -60 -178 -162 -244 -226 -131 -127
-205 -195 -335 -310 -47 -41 -114 -104 -150 -140 -97 -96 -232 -215 -281 -245
-37 -24 -58 -29 -158 -36 -116 -8 -116 -9 -148 -44 -26 -27 -33 -43 -33 -75 0
-38 2 -40 57 -66 l56 -27 156 12 c86 7 197 16 246 21 50 4 144 9 211 9 108 1
125 3 154 24 40 27 66 90 51 124 -16 35 -67 56 -115 48 -92 -14 -156 -17 -156
-6 0 6 28 37 63 70 34 32 152 147 263 254 110 107 218 206 240 220 39 25 42
26 272 29 127 2 231 1 230 -2 -11 -22 -151 -309 -159 -322 -18 -35 -28 -54
-55 -110 -36 -77 -62 -99 -126 -109 -29 -5 -63 -14 -76 -21 -18 -9 -30 -9 -58
1 -30 11 -41 10 -72 -4 -62 -27 -65 -30 -80 -71 -13 -35 -13 -44 -1 -69 23
-46 71 -57 203 -45 61 5 269 10 461 10 318 0 354 2 390 19 53 24 78 54 77 92
-2 63 -54 89 -179 89 -48 0 -94 4 -102 9 -11 7 -7 24 19 92 17 46 38 91 45 99
7 8 22 41 34 73 11 31 32 74 45 95 13 20 32 60 42 87 10 28 29 65 41 84 13 19
23 40 23 47 0 7 20 53 44 101 66 131 113 234 125 274 6 20 23 51 36 70 14 18
30 52 36 74 6 22 18 51 27 65 10 14 33 59 51 100 19 41 43 86 53 99 10 13 18
29 18 35 0 10 52 122 89 191 9 17 32 60 51 96 19 37 51 95 71 130 60 107 109
225 109 262 0 19 -8 45 -18 57 -24 30 -89 37 -124 13z m-680 -890 c-10 -31
-28 -67 -38 -80 -10 -14 -24 -41 -31 -61 -6 -20 -17 -43 -23 -50 -6 -8 -45
-80 -86 -160 l-76 -147 -69 -6 c-39 -4 -116 -7 -172 -8 l-103 -1 198 183 c108
100 245 228 304 285 59 56 109 102 112 102 2 0 -5 -26 -16 -57z"/>
<path d="M6134 12320 c-100 -4 -190 -12 -200 -18 -11 -6 -69 -61 -129 -122
-61 -62 -162 -162 -225 -224 -63 -61 -149 -147 -190 -191 -41 -44 -159 -164
-261 -266 -103 -103 -286 -290 -409 -415 -122 -126 -225 -230 -230 -232 -8 -3
13 73 35 123 7 17 22 59 33 95 11 36 36 95 55 130 19 36 52 115 73 175 46 138
77 218 103 272 12 23 21 47 21 53 0 5 9 29 19 53 11 23 36 83 56 132 19 50 44
108 54 130 61 129 74 168 65 203 -7 26 -19 40 -46 54 -35 19 -41 19 -190 2
-106 -11 -202 -15 -313 -12 -88 3 -174 1 -192 -4 -38 -10 -103 -82 -103 -114
0 -12 14 -36 30 -54 l30 -33 102 8 101 7 -23 -39 c-39 -64 -209 -306 -292
-416 -32 -41 -58 -80 -58 -85 0 -6 -4 -12 -9 -14 -10 -3 -181 -253 -181 -264
0 -4 -12 -21 -27 -40 -54 -64 -103 -132 -103 -142 0 -5 -6 -12 -13 -15 -8 -3
-54 -65 -103 -139 -48 -73 -105 -154 -126 -179 -21 -26 -38 -49 -38 -53 0 -3
-21 -38 -47 -77 -71 -107 -74 -110 -133 -190 -69 -93 -111 -153 -127 -182 -13
-25 -22 -36 -92 -123 -55 -69 -71 -74 -218 -74 -86 0 -132 -16 -160 -56 -32
-47 -36 -78 -12 -109 32 -39 62 -47 112 -30 47 16 505 40 562 29 40 -7 101 22
139 66 32 38 33 68 5 105 -21 26 -24 27 -110 23 l-88 -3 22 35 c24 40 131 194
177 256 16 23 30 44 30 48 0 4 26 41 58 83 31 41 66 90 77 108 29 50 82 128
98 145 8 8 17 22 20 30 4 8 22 35 41 60 33 43 140 195 161 228 6 8 23 34 38
56 15 23 49 73 74 111 26 39 63 90 82 115 20 25 63 84 95 133 33 48 61 85 63
83 2 -2 -7 -32 -20 -67 -14 -35 -39 -102 -57 -149 -18 -47 -43 -108 -56 -136
-13 -28 -33 -75 -43 -105 -46 -128 -93 -245 -106 -265 -7 -12 -23 -48 -34 -80
-63 -183 -93 -262 -114 -303 -14 -25 -28 -62 -32 -81 -4 -19 -13 -48 -21 -65
-75 -176 -97 -240 -101 -290 -2 -27 0 -56 5 -64 6 -7 32 -16 60 -19 50 -4 50
-4 118 58 38 35 75 70 82 79 7 9 149 153 315 322 166 168 455 460 642 649 187
189 358 360 380 380 38 34 39 34 19 5 -12 -16 -43 -64 -69 -105 -27 -41 -77
-109 -112 -151 -34 -43 -63 -80 -63 -83 0 -4 -26 -39 -58 -79 -32 -41 -69 -91
-82 -113 -13 -21 -46 -67 -72 -101 -26 -34 -48 -65 -48 -68 0 -3 -27 -40 -60
-83 -82 -107 -104 -137 -161 -217 -27 -38 -68 -96 -91 -129 -24 -32 -55 -77
-71 -99 -41 -60 -79 -79 -167 -84 -95 -6 -123 -17 -160 -63 -34 -43 -36 -57
-14 -88 37 -54 53 -55 424 -20 69 6 197 12 285 13 216 1 255 19 255 114 0 59
-32 81 -121 81 l-67 0 39 58 c21 31 61 89 88 127 28 39 81 116 118 173 37 57
88 129 113 160 67 84 140 181 140 187 0 3 21 34 48 69 26 35 67 94 92 131 25
36 64 92 88 123 23 30 42 59 42 63 0 4 6 14 13 21 29 31 105 131 147 193 25
37 52 75 61 84 8 10 43 59 77 110 68 101 121 173 253 341 47 60 93 120 101
132 15 22 22 23 139 23 148 1 178 12 198 73 17 51 8 90 -25 102 -28 11 -223
11 -500 0z"/>
<path d="M8759 12251 c-9 -6 -36 -36 -60 -68 -24 -32 -65 -80 -90 -108 -26
-27 -69 -77 -97 -110 -27 -33 -80 -94 -116 -135 -73 -81 -96 -124 -96 -175 0
-50 9 -64 44 -70 51 -10 81 9 209 134 67 65 143 137 168 159 68 61 183 118
280 138 91 19 279 31 279 17 0 -5 -28 -43 -62 -85 -94 -114 -229 -287 -258
-329 -14 -20 -49 -65 -79 -98 -44 -50 -170 -210 -256 -326 -45 -60 -121 -158
-168 -215 -29 -36 -77 -99 -107 -140 -30 -41 -98 -129 -150 -195 -52 -67 -104
-134 -115 -149 -87 -123 -102 -142 -200 -251 l-44 -49 -119 -6 c-102 -5 -122
-9 -149 -30 -38 -28 -67 -83 -59 -113 12 -48 30 -60 87 -60 80 1 461 11 484
13 11 1 75 -4 142 -10 141 -14 180 -9 224 27 40 34 51 64 38 103 -14 39 -35
50 -101 50 -77 0 -83 8 -42 55 42 48 169 212 204 264 27 39 132 172 165 208
11 12 52 65 90 118 39 53 116 152 173 220 56 68 102 127 102 130 0 3 44 59 98
124 148 181 237 293 258 325 10 16 33 46 50 65 17 20 57 65 89 101 32 36 82
97 111 136 50 66 57 72 99 77 82 12 255 -15 294 -45 52 -41 41 -103 -44 -238
-67 -107 -88 -159 -78 -193 7 -25 16 -34 44 -41 77 -19 100 -5 188 112 43 59
89 117 100 130 12 12 21 25 21 27 0 3 16 27 35 54 19 26 35 53 35 59 0 7 11
19 25 28 14 9 25 21 25 26 0 5 20 33 45 62 49 58 64 101 43 128 -17 22 -167
52 -224 44 -23 -3 -93 1 -155 10 -63 8 -154 17 -204 20 -49 2 -119 9 -155 15
-227 35 -989 80 -1021 60z"/>
<path d="M10902 11990 c-49 -12 -72 -37 -72 -80 0 -41 17 -62 46 -58 21 2 114
-12 127 -19 7 -4 -37 -61 -94 -120 -12 -12 -28 -34 -35 -48 -7 -15 -45 -61
-84 -104 -38 -43 -70 -82 -70 -88 0 -5 -11 -16 -25 -23 -14 -7 -25 -18 -25
-23 0 -6 -12 -22 -27 -36 -16 -14 -32 -33 -38 -42 -16 -27 -132 -160 -185
-214 -28 -27 -50 -54 -50 -59 0 -13 -68 -95 -107 -129 -18 -16 -49 -51 -70
-79 -20 -28 -57 -72 -83 -97 -25 -25 -65 -73 -89 -106 -24 -33 -80 -98 -124
-145 -44 -47 -93 -99 -108 -116 -16 -16 -29 -35 -29 -42 0 -6 -9 -16 -20 -22
-11 -6 -32 -30 -47 -53 -41 -65 -143 -175 -179 -192 -25 -12 -54 -14 -135 -9
-119 7 -173 -8 -189 -52 -19 -49 -13 -62 33 -68 23 -3 71 -10 107 -15 36 -5
97 -13 135 -17 39 -4 75 -10 80 -14 6 -4 84 -13 175 -20 91 -7 176 -18 190
-25 14 -7 66 -16 116 -20 88 -7 91 -7 122 20 57 48 36 103 -44 116 -53 8 -124
31 -124 39 0 3 13 19 28 36 15 17 47 55 72 84 25 30 60 67 78 84 17 16 32 34
32 39 0 6 9 19 20 31 12 12 53 59 93 105 40 47 102 116 138 155 37 39 74 86
83 104 10 18 43 59 74 90 31 32 70 75 86 96 l29 38 101 -7 c55 -4 106 -11 112
-16 14 -11 145 -29 263 -35 46 -3 93 -10 105 -17 12 -7 73 -17 136 -24 161
-17 190 -23 190 -39 0 -8 -6 -14 -13 -14 -15 0 -67 -51 -67 -66 0 -5 -16 -29
-36 -54 -20 -25 -40 -55 -45 -67 -5 -13 -15 -23 -23 -23 -19 0 -110 -111 -174
-212 -9 -15 -27 -32 -38 -39 -19 -10 -84 -91 -84 -105 0 -7 -109 -131 -193
-219 l-67 -72 -88 3 c-127 5 -201 -5 -224 -28 -30 -30 -19 -58 37 -89 45 -25
60 -28 150 -28 67 -1 107 -5 120 -15 21 -14 46 -18 230 -41 61 -7 139 -21 175
-30 82 -21 161 -29 195 -21 14 4 36 23 51 47 32 51 22 65 -52 75 -30 3 -57 10
-60 15 -3 5 -16 9 -29 9 -13 0 -27 5 -31 11 -9 15 28 89 44 89 7 0 16 8 19 18
8 21 52 76 123 156 31 33 66 77 80 96 13 19 56 72 95 118 38 46 89 110 111
143 23 33 73 95 111 137 38 42 78 91 88 107 11 17 29 41 42 55 12 14 44 54 72
90 28 36 57 72 66 81 8 9 15 20 15 25 0 5 33 45 73 89 101 112 167 191 167
199 0 3 31 43 70 87 38 44 89 110 113 147 50 76 107 131 155 151 29 12 35 12
52 -4 17 -15 31 -17 97 -11 46 3 83 12 93 21 9 8 22 15 28 15 7 0 12 15 12 34
0 27 -7 39 -29 55 -16 12 -39 21 -50 21 -12 0 -32 6 -44 14 -14 9 -68 17 -150
21 -70 4 -129 11 -132 15 -3 4 -44 13 -92 20 -49 7 -97 18 -108 25 -11 6 -56
15 -100 20 -44 4 -96 9 -115 11 -30 2 -42 -3 -78 -36 -68 -63 -51 -102 52
-114 32 -3 67 -11 77 -17 18 -9 18 -12 -13 -55 -18 -26 -39 -57 -46 -70 -7
-13 -22 -29 -33 -34 -10 -6 -19 -15 -19 -21 0 -6 -20 -35 -45 -63 -25 -29 -45
-56 -45 -59 0 -3 -12 -19 -27 -35 -16 -16 -49 -58 -75 -93 -26 -35 -67 -84
-92 -109 -26 -24 -46 -49 -46 -55 0 -6 -16 -28 -35 -49 -19 -21 -35 -42 -35
-46 0 -3 -11 -17 -25 -30 -24 -23 -26 -23 -112 -11 -48 7 -92 16 -98 21 -6 5
-53 14 -105 20 -224 25 -275 33 -281 41 -3 5 -57 12 -120 15 -62 3 -135 8
-161 11 l-48 5 78 90 c42 49 82 98 88 109 6 11 56 71 110 133 91 104 135 157
189 224 11 14 48 55 82 91 l62 66 132 1 c148 2 181 14 187 70 5 54 -14 66
-129 75 -57 5 -114 14 -127 19 -29 13 -68 13 -92 0 -13 -7 -21 -7 -25 0 -3 5
-32 10 -64 10 -35 0 -65 6 -77 15 -12 9 -43 14 -89 15 -39 0 -75 4 -80 9 -14
13 -154 21 -193 11z"/>
<path d="M13865 11640 c-194 -24 -325 -73 -518 -194 -62 -39 -187 -151 -187
-168 0 -4 -10 -18 -22 -32 -56 -60 -87 -112 -107 -181 -7 -22 -18 -51 -24 -64
-7 -14 -12 -65 -11 -120 1 -149 35 -231 179 -436 144 -205 157 -233 163 -342
7 -126 -37 -243 -119 -319 -104 -96 -257 -156 -399 -158 -77 -1 -209 24 -270
51 -68 29 -101 72 -107 139 -4 43 47 216 72 244 17 20 45 88 45 110 0 9 -9 29
-21 44 -26 33 -84 36 -122 6 -14 -11 -28 -20 -31 -20 -10 0 -56 -51 -122 -138
-37 -48 -97 -121 -132 -162 -35 -41 -74 -86 -86 -100 -11 -14 -42 -51 -68 -82
-74 -88 -84 -129 -42 -172 20 -19 37 -26 67 -26 37 0 46 6 107 69 92 97 102
98 180 17 46 -48 83 -75 144 -105 76 -37 92 -41 235 -56 203 -21 311 -14 450
32 125 40 253 102 338 160 83 59 240 226 269 287 12 27 28 52 34 56 20 12 50
140 57 241 5 81 2 109 -16 177 -25 94 -79 201 -148 295 -128 175 -168 267
-167 382 1 69 5 88 32 140 17 33 42 70 55 82 124 115 370 189 504 153 64 -17
136 -56 152 -82 24 -39 22 -112 -5 -191 -61 -174 -59 -163 -40 -191 14 -22 24
-26 68 -26 63 0 106 29 137 94 12 24 29 50 37 56 7 7 14 16 14 21 0 16 59 102
122 176 176 209 193 238 160 282 -15 20 -29 27 -66 29 -44 3 -52 0 -109 -47
-60 -49 -93 -61 -113 -42 -15 16 -132 71 -149 71 -8 0 -23 4 -33 9 -63 32
-256 48 -387 31z"/>
<path d="M15551 11585 c-18 -8 -50 -15 -70 -15 -20 0 -59 -8 -86 -19 -141 -53
-173 -67 -210 -90 -65 -42 -78 -50 -110 -67 -29 -16 -120 -82 -157 -114 -9 -8
-42 -35 -74 -60 -31 -25 -87 -73 -123 -107 -36 -35 -68 -63 -71 -63 -6 0 -56
-55 -220 -240 -72 -82 -150 -178 -150 -185 0 -3 -22 -34 -48 -68 -60 -78 -162
-232 -162 -245 0 -5 -13 -26 -30 -47 -16 -21 -30 -45 -30 -54 0 -9 -9 -22 -19
-28 -10 -7 -31 -37 -45 -67 -14 -31 -37 -80 -51 -108 -51 -110 -78 -274 -63
-381 18 -129 82 -220 201 -281 45 -24 66 -28 164 -32 182 -7 290 21 498 128
130 67 278 182 439 343 83 83 165 168 181 189 17 22 48 60 71 85 66 75 114
137 114 148 0 6 11 18 25 27 14 9 25 22 25 29 0 6 20 38 45 69 25 32 45 61 45
64 0 4 21 39 47 78 26 39 54 89 62 111 9 22 24 52 34 66 10 15 25 48 35 75 10
27 26 61 36 76 28 42 77 185 92 266 8 40 17 78 20 84 13 20 12 152 -1 203 -21
85 -41 120 -87 158 -50 41 -86 57 -131 57 -18 0 -50 7 -72 15 -51 18 -81 18
-124 0z m58 -211 c20 -15 22 -22 18 -73 -10 -112 -35 -216 -61 -256 -8 -12
-29 -60 -47 -106 -18 -46 -38 -91 -45 -99 -7 -8 -22 -35 -34 -60 -29 -62 -57
-108 -110 -179 l-45 -61 -302 2 c-167 2 -303 6 -303 9 0 4 23 35 50 70 28 35
57 73 65 84 94 126 170 219 213 258 17 17 32 35 32 42 0 6 57 66 128 133 121
116 208 183 262 204 14 5 38 15 55 23 61 28 94 30 124 9z m-481 -1059 c5 -4
-51 -83 -81 -115 -8 -8 -26 -31 -39 -52 -70 -104 -290 -359 -390 -453 -132
-124 -154 -139 -276 -186 -35 -14 -110 -11 -142 6 -47 24 -55 106 -22 226 20
75 49 135 110 234 18 28 36 61 42 74 6 13 22 37 35 53 14 16 25 34 25 39 0 5
16 32 35 59 19 27 35 53 35 56 0 3 12 21 28 39 l27 33 304 -4 c168 -3 307 -7
309 -9z"/>
<path d="M17440 11550 c-30 -5 -71 -13 -90 -19 -114 -33 -152 -45 -210 -67
-36 -14 -81 -33 -100 -43 -19 -10 -47 -21 -61 -25 -15 -3 -51 -22 -80 -42 -30
-20 -67 -43 -84 -51 -16 -8 -44 -24 -62 -36 -18 -12 -54 -35 -80 -52 -26 -16
-79 -54 -117 -85 -38 -30 -84 -67 -103 -82 -151 -117 -421 -387 -539 -538 -67
-86 -175 -252 -209 -320 -15 -30 -33 -62 -39 -70 -17 -21 -70 -160 -100 -260
-22 -74 -25 -100 -23 -200 3 -97 7 -122 27 -160 29 -58 81 -130 92 -130 5 0
24 -11 41 -24 71 -54 106 -61 317 -61 198 0 210 2 345 47 130 44 298 128 385
192 30 23 80 57 110 77 30 19 105 85 167 145 94 91 114 116 123 154 12 43 11
45 -20 73 -56 50 -109 25 -259 -123 -93 -92 -192 -158 -353 -234 -131 -62
-199 -79 -312 -74 -84 3 -94 5 -129 33 -45 36 -52 66 -44 179 6 80 9 91 104
346 15 41 40 96 56 121 15 25 27 51 27 57 0 6 10 23 23 39 13 15 27 35 30 43
50 110 250 361 447 560 189 191 382 327 545 384 98 34 156 44 259 45 78 1 78
1 112 -36 35 -38 40 -57 35 -147 -3 -55 -53 -181 -101 -256 -58 -90 -58 -146
1 -170 58 -24 121 18 192 130 44 69 89 128 171 225 18 22 56 69 84 105 29 36
56 70 61 76 5 6 19 31 31 54 19 38 21 48 11 82 -18 59 -80 64 -148 12 -17 -13
-38 -24 -45 -24 -8 0 -32 18 -53 41 -100 102 -238 137 -435 109z"/>
<path d="M11605 7715 c-22 -8 -58 -34 -81 -57 -35 -38 -43 -55 -58 -123 -30
-143 -28 -139 -65 -145 -61 -9 -69 -62 -12 -73 28 -6 30 -8 24 -44 -19 -128
-87 -443 -101 -472 -21 -39 -73 -71 -118 -71 -23 0 -39 10 -67 40 -42 48 -62
45 -79 -12 -16 -53 -5 -68 65 -92 72 -24 124 -16 197 27 78 47 112 101 143
234 39 166 55 242 62 311 7 66 11 72 59 82 26 5 31 10 31 35 0 26 -4 30 -29
33 -27 3 -28 5 -23 45 20 137 45 201 87 216 32 11 46 3 73 -41 21 -34 41 -35
61 -6 16 23 22 103 9 111 -24 14 -141 15 -178 2z"/>
<path d="M3181 7683 c-27 -11 -77 -13 -255 -9 -121 2 -237 6 -256 8 l-35 3 0
-85 c0 -81 1 -85 22 -85 14 0 30 13 45 35 23 34 26 35 96 38 l72 3 0 -253 c0
-139 -3 -263 -6 -276 -4 -12 -17 -25 -31 -28 -19 -5 -23 -12 -21 -33 l3 -26
114 -3 c114 -3 141 4 141 34 0 8 -11 20 -25 26 -13 6 -27 20 -31 31 -4 14 -8
460 -4 520 0 11 116 8 142 -4 13 -5 31 -23 40 -40 9 -16 23 -29 31 -29 28 0
38 27 35 95 -4 83 -22 102 -77 78z"/>
<path d="M8855 7671 c-105 -49 -145 -156 -97 -263 21 -47 49 -74 162 -152 117
-81 139 -129 91 -196 -15 -21 -28 -26 -74 -28 -49 -3 -59 0 -87 25 -17 15 -37
46 -44 68 -17 48 -38 64 -60 46 -12 -10 -16 -33 -16 -95 0 -44 4 -86 8 -93 4
-7 29 -12 57 -11 28 1 78 -3 112 -7 87 -11 127 0 178 46 43 40 75 106 75 156
0 72 -68 158 -176 224 -141 85 -178 153 -111 203 57 42 140 17 172 -52 27 -56
34 -63 56 -51 18 9 19 20 17 92 l-3 82 -35 1 c-19 1 -53 6 -75 13 -57 16 -104
13 -150 -8z"/>
<path d="M9501 7672 c-14 -26 -14 -117 -1 -143 16 -29 46 -24 60 11 17 41 37
50 114 50 l66 0 0 -258 c0 -217 -2 -261 -16 -280 -8 -12 -22 -22 -30 -22 -20
0 -29 -27 -14 -45 10 -12 38 -15 125 -15 87 0 115 3 125 15 15 18 6 45 -14 45
-8 0 -22 10 -30 22 -14 19 -16 63 -16 280 l0 258 70 0 c74 0 94 -10 126 -66
20 -33 48 -6 52 50 2 25 5 46 7 46 2 0 23 -8 47 -19 31 -13 50 -30 67 -62 14
-24 44 -71 66 -104 72 -103 75 -113 75 -234 0 -124 -9 -157 -45 -171 -32 -12
-34 -47 -2 -55 12 -3 69 -5 127 -3 l105 3 3 28 c2 19 -1 27 -12 27 -31 0 -46
54 -46 169 0 107 1 111 35 168 85 143 141 218 172 232 37 16 48 37 32 57 -8
10 -37 14 -101 14 -100 0 -114 -10 -84 -60 19 -32 15 -45 -31 -115 -64 -99
-53 -98 -111 -1 -29 47 -52 90 -52 95 0 6 9 12 19 16 25 7 35 34 20 51 -15 19
-249 20 -267 2 -10 -10 -16 -7 -28 11 -14 19 -22 22 -48 15 -41 -10 -482 -10
-523 0 -26 7 -33 4 -42 -12z"/>
<path d="M16607 7669 c-82 -28 -131 -63 -181 -130 -75 -99 -95 -245 -52 -368
31 -86 127 -168 230 -196 77 -21 316 -19 338 3 8 8 15 52 18 124 5 111 5 111
35 128 33 18 44 48 23 61 -7 5 -67 9 -133 9 -66 0 -126 -4 -133 -9 -23 -14 -9
-45 25 -55 40 -12 53 -41 53 -116 0 -72 -19 -90 -93 -90 -81 0 -158 56 -210
154 -19 35 -22 57 -22 156 0 99 3 121 22 155 30 57 70 91 130 110 47 15 56 16
106 1 71 -21 100 -45 126 -106 18 -42 26 -51 44 -48 21 3 22 8 22 108 l0 105
-52 -3 c-28 -2 -75 4 -104 12 -70 21 -121 20 -192 -5z"/>
<path d="M3304 7655 c-9 -23 3 -44 31 -55 21 -8 25 -16 25 -47 3 -302 -1 -487
-10 -503 -6 -11 -20 -20 -31 -20 -16 0 -20 -5 -17 -27 l3 -28 125 0 125 0 3
28 c2 19 -1 27 -12 27 -33 0 -46 41 -46 147 l0 103 155 0 155 0 0 -94 c0 -109
-10 -143 -45 -156 -14 -5 -25 -15 -25 -23 0 -30 24 -37 137 -37 102 0 113 2
123 20 12 23 6 40 -14 40 -7 0 -20 8 -29 18 -15 16 -17 50 -17 274 l0 256 35
26 c30 23 33 30 25 47 -10 17 -22 19 -130 19 -111 0 -119 -1 -125 -20 -7 -23
10 -50 31 -50 23 0 34 -45 34 -141 l0 -89 -155 0 -155 0 0 101 c0 99 0 100 31
128 19 17 29 36 27 47 -3 17 -15 19 -126 22 -102 2 -123 0 -128 -13z"/>
<path d="M4077 7663 c-15 -14 -6 -40 23 -65 l30 -26 0 -255 c0 -233 -1 -255
-18 -270 -10 -10 -24 -17 -31 -17 -8 0 -11 -11 -9 -27 l3 -28 236 -3 c267 -3
262 -4 280 78 19 84 -18 107 -69 43 l-30 -38 -101 -3 c-70 -3 -106 0 -116 8
-11 9 -15 35 -15 100 0 49 3 95 6 104 5 13 23 16 95 16 83 0 89 -1 105 -25 18
-27 43 -32 62 -13 12 12 17 124 6 152 -8 22 -51 20 -63 -3 -8 -14 -27 -20 -85
-25 -41 -4 -86 -4 -101 0 l-26 6 3 107 3 106 108 3 108 3 27 -31 c29 -33 47
-38 56 -14 10 27 7 99 -6 112 -13 13 -469 18 -481 5z"/>
<path d="M4942 7658 c-18 -18 -14 -36 11 -49 12 -7 25 -17 29 -23 4 -6 8 -100
8 -209 0 -109 5 -217 11 -240 13 -54 69 -131 111 -154 48 -26 198 -25 256 1
23 10 42 23 42 28 0 17 26 7 35 -14 9 -21 16 -23 95 -23 84 0 85 0 88 26 2 21
-2 28 -21 33 -14 3 -28 13 -31 23 -4 9 -7 129 -7 267 l0 251 32 26 c20 16 30
32 27 45 -3 17 -13 19 -122 19 -104 0 -120 -2 -130 -18 -9 -15 -7 -22 12 -37
12 -10 28 -20 35 -23 17 -5 24 -426 7 -457 -6 -12 -32 -35 -58 -51 -35 -22
-58 -29 -96 -29 -63 0 -94 15 -123 59 -22 33 -23 42 -23 251 l0 218 35 26 c30
23 33 30 25 47 -10 17 -22 19 -123 19 -75 0 -117 -4 -125 -12z"/>
<path d="M5687 7663 c-18 -18 -5 -50 25 -64 54 -23 58 -42 57 -279 0 -236 -8
-283 -47 -288 -19 -3 -23 -9 -20 -30 l3 -27 99 -3 c73 -2 102 1 108 10 13 21
9 38 -9 45 -52 18 -53 22 -53 246 l0 210 21 -19 c21 -18 209 -248 297 -363 62
-79 109 -131 120 -131 33 0 37 33 42 323 l5 290 30 17 c20 11 30 24 30 41 0
24 -2 24 -102 27 -95 3 -102 1 -108 -18 -7 -23 10 -50 31 -50 8 0 18 -10 23
-22 11 -30 14 -345 3 -352 -8 -5 -16 4 -201 235 -61 75 -125 153 -144 173 -34
36 -35 36 -119 36 -47 0 -88 -3 -91 -7z"/>
<path d="M6467 7664 c-15 -16 -6 -40 25 -66 l33 -27 3 -228 c4 -251 -2 -293
-44 -311 -18 -9 -24 -19 -22 -35 3 -21 7 -22 125 -25 110 -2 123 -1 132 16 12
22 3 37 -26 46 -38 12 -45 62 -41 309 l3 228 34 28 c22 18 32 34 29 47 -3 17
-14 19 -124 22 -66 1 -123 -1 -127 -4z"/>
<path d="M6767 7664 c-17 -17 -5 -46 27 -65 22 -13 40 -35 51 -62 9 -23 23
-55 31 -72 7 -16 30 -77 49 -135 20 -58 46 -125 58 -150 12 -25 33 -78 47
-119 14 -41 33 -79 43 -85 38 -24 52 3 163 313 74 206 111 281 151 306 76 48
50 75 -72 75 -116 0 -145 -23 -83 -68 10 -7 18 -21 18 -31 0 -17 -37 -125 -60
-176 -5 -11 -21 -58 -35 -103 -32 -100 -38 -98 -83 28 -17 47 -39 103 -50 125
-10 22 -25 62 -32 88 -12 45 -11 49 10 71 12 14 20 32 18 43 -3 16 -16 18
-124 21 -66 1 -123 -1 -127 -4z"/>
<path d="M7472 7658 c-19 -19 -14 -36 17 -52 38 -20 41 -40 40 -290 -2 -247
-4 -266 -42 -284 -15 -7 -27 -19 -27 -26 0 -33 23 -36 252 -36 209 0 230 2
247 19 18 18 37 113 26 131 -13 21 -46 9 -67 -25 -27 -40 -59 -48 -178 -43
l-75 3 0 110 0 110 87 3 c83 3 89 1 110 -23 26 -30 53 -32 68 -6 17 33 12 126
-8 151 -19 24 -48 19 -57 -10 -5 -15 -21 -20 -80 -25 -41 -4 -86 -4 -100 -1
-25 6 -25 7 -25 116 l0 110 110 0 109 0 23 -30 c27 -37 55 -39 64 -4 9 33 -2
95 -18 106 -22 13 -462 10 -476 -4z"/>
<path d="M8068 7664 c-16 -16 -7 -44 22 -64 l30 -21 0 -252 c0 -212 -2 -256
-16 -275 -8 -12 -22 -22 -30 -22 -11 0 -14 -8 -12 -27 l3 -28 115 -3 c97 -2
117 0 127 14 14 19 7 44 -13 44 -31 0 -44 42 -44 141 0 106 3 112 54 98 41
-12 79 -51 126 -129 21 -37 58 -91 80 -119 l41 -52 71 3 c56 2 73 7 82 22 9
14 7 20 -8 30 -47 28 -84 69 -121 133 -22 37 -55 85 -74 106 l-34 38 45 42
c60 58 77 115 54 185 -18 53 -50 89 -106 118 -29 15 -66 19 -210 22 -96 2
-178 1 -182 -4z m292 -77 c82 -28 105 -137 42 -200 -26 -26 -40 -31 -92 -35
l-60 -4 0 126 0 126 38 -1 c20 0 53 -5 72 -12z"/>
<path d="M9200 7651 c-8 -17 -5 -24 25 -47 l35 -26 0 -255 c0 -262 -4 -293
-40 -293 -26 0 -33 -15 -20 -40 10 -19 19 -20 133 -18 118 3 122 4 125 25 3
17 -3 26 -22 33 -15 5 -29 21 -33 37 -4 15 -8 135 -8 266 l0 238 34 28 c26 22
32 32 27 49 -7 21 -13 22 -126 22 -108 0 -120 -2 -130 -19z"/>
<path d="M11892 7661 c-21 -13 -10 -44 21 -59 l27 -13 0 -268 c0 -278 -2 -291
-43 -291 -14 0 -18 -6 -15 -27 l3 -28 243 -3 243 -2 16 37 c9 21 16 56 17 78
1 56 -25 58 -74 6 l-38 -42 -103 3 -104 3 0 110 0 110 84 3 c80 3 86 1 108
-23 49 -52 75 -25 71 77 -3 69 -4 73 -27 76 -16 3 -30 -3 -40 -16 -12 -15 -33
-21 -92 -26 -112 -9 -109 -13 -109 115 l0 109 109 0 110 0 21 -31 c15 -20 29
-29 44 -27 18 3 21 11 24 54 5 85 7 84 -256 84 -125 0 -233 -4 -240 -9z"/>
<path d="M12477 7663 c-15 -14 -5 -38 28 -69 l35 -32 0 -235 c0 -251 -4 -277
-47 -296 -17 -8 -23 -18 -21 -34 l3 -22 215 1 c198 0 219 2 272 23 82 32 162
107 184 174 25 71 25 205 1 274 -37 106 -143 188 -271 212 -64 12 -388 15
-399 4z m416 -92 c85 -41 137 -142 137 -266 0 -60 -5 -82 -30 -131 -46 -93
-118 -134 -234 -134 -74 0 -85 6 -97 56 -10 42 -11 466 -2 491 10 25 165 14
226 -16z"/>
<path d="M13242 7658 c-19 -19 -14 -31 23 -56 l35 -22 0 -248 c0 -136 -3 -257
-6 -270 -4 -12 -17 -25 -29 -28 -28 -7 -40 -31 -24 -50 15 -18 229 -20 247 -2
17 17 15 38 -5 45 -53 19 -53 18 -53 290 0 240 1 254 20 273 11 11 24 20 29
20 15 0 22 32 10 46 -15 18 -229 20 -247 2z"/>
<path d="M13541 7656 c-15 -17 2 -56 23 -56 7 0 22 -10 34 -23 21 -23 22 -30
22 -263 -1 -252 -2 -258 -48 -283 -16 -8 -22 -20 -20 -34 3 -21 9 -22 102 -25
98 -3 126 5 126 33 0 8 -17 22 -37 32 l-38 18 -3 213 c-1 116 0 212 3 212 7 0
71 -71 105 -117 15 -21 36 -47 46 -58 11 -11 69 -83 130 -160 138 -173 146
-180 173 -165 20 10 21 18 22 293 0 155 4 290 8 300 3 10 18 24 31 30 17 8 25
21 25 37 0 25 0 25 -105 25 -100 0 -105 -1 -108 -22 -2 -15 6 -27 25 -40 15
-9 31 -22 35 -28 9 -12 11 -355 1 -355 -7 0 -64 65 -113 131 -71 94 -176 225
-219 271 l-44 48 -82 0 c-60 0 -86 -4 -94 -14z"/>
<path d="M14332 7662 c-20 -14 -10 -45 18 -59 14 -7 28 -24 31 -40 9 -39 9
-429 1 -478 -6 -30 -14 -43 -35 -53 -30 -14 -36 -46 -11 -56 31 -12 329 -6
380 7 111 29 168 118 142 222 -10 37 -24 60 -60 94 l-47 44 40 45 c35 40 39
50 39 97 0 68 -39 125 -107 157 -43 20 -67 23 -213 26 -91 1 -171 -1 -178 -6z
m331 -102 c46 -51 34 -134 -25 -170 -32 -19 -116 -28 -119 -12 -5 25 -6 186
-1 204 4 19 10 20 61 15 46 -5 61 -11 84 -37z m-8 -288 c52 -36 67 -66 62
-125 -6 -70 -38 -99 -114 -105 -44 -3 -62 0 -71 11 -15 18 -27 161 -18 211 7
35 8 36 54 36 35 -1 57 -8 87 -28z"/>
<path d="M14921 7656 c-16 -19 -6 -38 29 -58 l30 -17 0 -203 c0 -152 4 -216
15 -253 35 -114 91 -156 220 -163 74 -3 85 -1 140 27 32 16 59 29 60 28 0 -1
5 -11 11 -22 9 -17 23 -20 88 -23 79 -3 106 6 106 34 0 8 -11 19 -25 24 -42
16 -46 47 -43 307 l3 242 35 29 c30 26 33 31 21 46 -12 14 -32 16 -130 14
-104 -3 -116 -5 -119 -22 -2 -11 8 -29 26 -46 l31 -28 1 -220 1 -220 -42 -35
c-94 -81 -230 -59 -259 41 -7 23 -10 116 -8 242 l3 205 28 13 c34 16 44 37 27
57 -17 21 -232 22 -249 1z"/>
<path d="M15693 7659 c-21 -21 -15 -36 22 -58 l35 -20 0 -256 c0 -276 2 -267
-56 -301 -15 -10 -17 -16 -8 -30 10 -16 27 -19 124 -22 113 -3 140 4 140 34 0
8 -11 19 -25 24 -35 13 -45 47 -45 151 l0 89 32 0 c38 0 88 -37 119 -87 64
-108 135 -204 154 -209 11 -3 48 -4 80 -2 57 3 60 5 63 30 2 19 -2 28 -17 33
-27 8 -86 75 -112 127 -11 24 -39 64 -60 90 -21 26 -39 50 -39 55 0 5 14 17
30 26 75 44 93 177 36 252 -51 67 -96 79 -291 83 -128 3 -173 0 -182 -9z m303
-75 c49 -23 64 -50 64 -111 0 -44 -5 -58 -29 -85 -24 -27 -36 -32 -90 -36
l-61 -4 0 119 c0 66 3 123 7 126 12 13 75 7 109 -9z"/>
<path d="M17097 7664 c-15 -16 -5 -44 23 -64 l30 -21 0 -257 c0 -141 -4 -262
-8 -268 -4 -6 -17 -16 -30 -23 -16 -8 -22 -20 -20 -34 3 -21 8 -22 123 -25
101 -2 122 0 132 14 13 18 7 44 -12 44 -6 0 -19 8 -28 18 -14 15 -17 40 -17
126 l0 107 153 -3 152 -3 1 -85 c1 -115 -6 -142 -39 -158 -15 -7 -27 -19 -27
-26 0 -30 28 -37 141 -34 l114 3 3 28 c2 18 -1 27 -11 27 -8 0 -21 8 -30 18
-15 16 -17 50 -17 273 l0 254 31 26 c25 20 30 30 24 48 -6 21 -11 22 -122 19
-99 -3 -117 -6 -127 -21 -11 -19 -7 -24 41 -53 16 -10 18 -25 18 -115 l0 -104
-152 -3 -153 -3 0 105 0 105 31 21 c20 15 29 29 27 44 -3 20 -9 21 -124 24
-66 1 -123 -1 -127 -4z"/>
<path d="M11133 7396 c-62 -20 -105 -50 -139 -98 -102 -142 -76 -314 48 -333
71 -11 124 9 183 69 39 41 56 68 73 120 27 81 27 118 2 174 -15 33 -29 47 -62
62 -50 23 -50 23 -105 6z m63 -101 c35 -54 -3 -193 -66 -243 -51 -40 -90 -6
-90 80 0 132 105 241 156 163z"/>
</g>
</svg>
